<svg width="44" height="24" viewBox="0 0 44 24" fill="none" xmlns="http://www.w3.org/2000/svg">
<path d="M26.6433 11.5444C25.8388 11.2607 25.8388 10.1772 25.7889 9.42267C25.5877 6.73506 26.5935 2.63196 25.3866 0.887506C24.5322 -0.150717 20.408 -0.055647 17.8945 0.0862032C17.1897 0.181273 16.3353 0.321616 15.7319 0.605316C15.1285 0.889017 14.525 1.35984 14.525 1.78388C14.525 2.39655 16.0344 2.30299 16.5863 3.10429C17.1897 3.95389 17.1897 5.7919 17.1897 7.30095C17.1897 9.0454 16.8872 11.3573 16.1342 11.4508C14.9772 11.4976 14.3239 10.4126 13.7205 9.6113C12.5136 8.05547 11.3068 6.12088 10.4008 4.23457C9.94869 3.24464 9.69605 2.15963 9.04275 1.73559C8.03705 1.07463 6.22678 1.02785 4.4664 1.07463C2.85728 1.12141 0.543363 0.932779 0.0911998 1.82915C-0.261198 2.81909 0.493481 3.76224 0.895761 4.56505C2.95705 8.7617 5.16959 12.4408 7.88579 15.9297C10.4008 19.1832 12.763 21.7772 17.3893 23.1444C18.6975 23.5217 24.4292 24.6067 25.5861 23.1444C25.9884 22.5785 25.8887 21.3049 26.0898 20.3617C26.2909 19.4186 26.542 18.4754 27.4978 18.4286C28.3023 18.3819 28.7545 19.0413 29.2582 19.5137C29.8117 20.0328 30.2639 20.4568 30.6661 20.9291C31.622 21.8255 32.6277 23.0509 33.8345 23.5232C35.4935 24.1841 38.0584 23.9955 40.4721 23.9004C42.4337 23.8537 43.8416 23.4764 43.9929 22.3914C44.0943 21.5418 43.087 20.3165 42.4835 19.6087C40.9742 17.8643 40.271 17.3452 38.5605 15.741C37.8058 15.0333 36.85 14.2788 36.85 13.4307C36.8001 12.9116 37.2523 12.4408 37.6546 11.9216C39.4149 9.46945 41.1753 7.72499 42.7844 5.17772C43.2366 4.4232 44.2938 2.67874 43.8915 1.82915C43.4394 0.885998 40.9243 1.16819 39.3651 1.16819C37.3537 1.16819 34.7388 1.02634 34.2352 1.4036C33.2794 2.01627 32.8771 3.00772 32.4249 3.95087C31.4192 6.12088 30.0611 8.33615 28.6531 9.98705C28.1495 10.5529 27.1953 11.7315 26.6417 11.5429L26.6433 11.5444Z" fill="#F2F3F4"/>
</svg>
