<svg width="90" height="52" viewBox="0 0 90 52" fill="none" xmlns="http://www.w3.org/2000/svg">
<path d="M73 27.5C73.8284 27.5 74.5 26.8284 74.5 26C74.5 25.1716 73.8284 24.5 73 24.5L73 26L73 27.5ZM31.9393 24.9393C31.3536 25.5251 31.3536 26.4749 31.9393 27.0607L41.4853 36.6066C42.0711 37.1924 43.0208 37.1924 43.6066 36.6066C44.1924 36.0208 44.1924 35.0711 43.6066 34.4853L35.1213 26L43.6066 17.5147C44.1924 16.9289 44.1924 15.9792 43.6066 15.3934C43.0208 14.8076 42.0711 14.8076 41.4853 15.3934L31.9393 24.9393ZM73 26L73 24.5L33 24.5L33 26L33 27.5L73 27.5L73 26Z" fill="black"/>
</svg>
