<svg width="90" height="52" viewBox="0 0 90 52" fill="none" xmlns="http://www.w3.org/2000/svg">
<path d="M13 27.5C12.1716 27.5 11.5 26.8284 11.5 26C11.5 25.1716 12.1716 24.5 13 24.5L13 26L13 27.5ZM54.0607 24.9393C54.6464 25.5251 54.6464 26.4749 54.0607 27.0607L44.5147 36.6066C43.9289 37.1924 42.9792 37.1924 42.3934 36.6066C41.8076 36.0208 41.8076 35.0711 42.3934 34.4853L50.8787 26L42.3934 17.5147C41.8076 16.9289 41.8076 15.9792 42.3934 15.3934C42.9792 14.8076 43.9289 14.8076 44.5147 15.3934L54.0607 24.9393ZM13 26L13 24.5L53 24.5L53 26L53 27.5L13 27.5L13 26Z" fill="black"/>
</svg>
