<svg width="43" height="23" viewBox="0 0 43 23" fill="none" xmlns="http://www.w3.org/2000/svg">
<path d="M1.5 12.5459C0.671573 12.5459 -7.24234e-08 11.8743 0 11.0459C7.24234e-08 10.2175 0.671573 9.5459 1.5 9.5459L1.5 11.0459L1.5 12.5459ZM42.5607 9.98524C43.1464 10.571 43.1464 11.5208 42.5607 12.1066L33.0147 21.6525C32.4289 22.2383 31.4792 22.2383 30.8934 21.6525C30.3076 21.0667 30.3076 20.117 30.8934 19.5312L39.3787 11.0459L30.8934 2.56062C30.3076 1.97483 30.3076 1.02509 30.8934 0.439299C31.4792 -0.146487 32.4289 -0.146487 33.0147 0.439299L42.5607 9.98524ZM1.5 11.0459L1.5 9.5459L41.5 9.5459L41.5 11.0459L41.5 12.5459L1.5 12.5459L1.5 11.0459Z" fill="black"/>
</svg>
