<svg width="433" height="418" viewBox="0 0 433 418" fill="none" xmlns="http://www.w3.org/2000/svg">
<path d="M192.266 44.8724C91.5988 44.8724 10 126.138 10 226.394C10 326.65 91.5988 407.916 192.266 407.916C292.934 407.916 374.533 326.65 374.533 226.394C374.533 126.138 292.915 44.8724 192.266 44.8724Z" stroke="#212529" stroke-width="20" stroke-miterlimit="10"/>
<path d="M192.285 103.064C91.6173 103.064 10 158.3 10 226.394C10 294.488 91.6173 349.724 192.285 349.724C292.952 349.724 374.533 294.506 374.533 226.394C374.533 158.282 292.915 103.064 192.285 103.064ZM257.338 275.238C257.338 284.069 250.177 291.2 241.329 291.2H143.222C134.374 291.2 127.214 284.069 127.214 275.238V177.55C127.214 168.738 134.374 161.607 143.222 161.607H241.329C250.177 161.607 257.338 168.738 257.338 177.55V275.238Z" fill="#212529"/>
<path d="M397.719 70.015C417.133 70.015 432.871 54.3416 432.871 35.0075C432.871 15.6734 417.133 0 397.719 0C378.306 0 362.568 15.6734 362.568 35.0075C362.568 54.3416 378.306 70.015 397.719 70.015Z" fill="#212529"/>
</svg>
