<svg width="30" height="32" viewBox="0 0 30 32" fill="none" xmlns="http://www.w3.org/2000/svg">
<path d="M20.0142 2.29078C18.6459 0.813516 16.7348 0 14.6254 0C12.5048 0 10.5874 0.808594 9.2254 2.27672C7.84868 3.76102 7.1779 5.77828 7.3354 7.95656C7.64759 12.2541 10.9178 15.75 14.6254 15.75C18.333 15.75 21.5976 12.2548 21.9147 7.95797C22.0743 5.79937 21.3993 3.78633 20.0142 2.29078ZM27.0004 31.5H2.2504C1.92645 31.5042 1.60563 31.4362 1.31128 31.3008C1.01694 31.1654 0.756474 30.9661 0.54884 30.7174C0.0918084 30.1711 -0.0924104 29.4251 0.0439959 28.6706C0.637433 25.3786 2.48947 22.6132 5.4004 20.6719C7.9865 18.9485 11.2624 18 14.6254 18C17.9885 18 21.2643 18.9492 23.8504 20.6719C26.7613 22.6125 28.6134 25.3779 29.2068 28.6699C29.3432 29.4244 29.159 30.1704 28.702 30.7167C28.4944 30.9655 28.234 31.165 27.9396 31.3005C27.6453 31.436 27.3244 31.5041 27.0004 31.5Z" fill="black"/>
</svg>
