<svg width="36" height="36" viewBox="0 0 36 36" fill="none" xmlns="http://www.w3.org/2000/svg">
<path d="M23.3892 4.54078C22.0209 3.06352 20.1098 2.25 18.0004 2.25C15.8798 2.25 13.9624 3.05859 12.6004 4.52672C11.2237 6.01102 10.5529 8.02828 10.7104 10.2066C11.0226 14.5041 14.2928 18 18.0004 18C21.708 18 24.9726 14.5048 25.2897 10.208C25.4493 8.04937 24.7743 6.03633 23.3892 4.54078ZM30.3754 33.75H5.6254C5.30145 33.7542 4.98063 33.6862 4.68628 33.5508C4.39194 33.4154 4.13147 33.2161 3.92384 32.9674C3.46681 32.4211 3.28259 31.6751 3.419 30.9206C4.01243 27.6286 5.86447 24.8632 8.7754 22.9219C11.3615 21.1985 14.6374 20.25 18.0004 20.25C21.3635 20.25 24.6393 21.1992 27.2254 22.9219C30.1363 24.8625 31.9884 27.6279 32.5818 30.9199C32.7182 31.6744 32.534 32.4204 32.077 32.9667C31.8694 33.2155 31.609 33.415 31.3146 33.5505C31.0203 33.686 30.6994 33.7541 30.3754 33.75Z" fill="black"/>
</svg>
