<svg width="27" height="27" viewBox="0 0 27 27" fill="none" xmlns="http://www.w3.org/2000/svg">
<path fill-rule="evenodd" clip-rule="evenodd" d="M22.2502 4.98354C23.4741 4.46821 24.7862 5.50313 24.5701 6.81341L22.0175 22.2897C21.7714 23.7819 20.1325 24.6381 18.7635 23.8945C17.6179 23.2723 15.9182 22.3146 14.3864 21.3137C13.6216 20.8138 11.2794 19.2111 11.5673 18.0703C11.8135 17.0948 15.7508 13.4297 18.0008 11.25C18.8846 10.3938 18.4821 9.89914 17.4383 10.6875C14.849 12.6431 10.692 15.6163 9.31726 16.4531C8.10436 17.1913 7.47108 17.3173 6.7157 17.1913C5.3363 16.9615 4.05743 16.6055 3.01334 16.1727C1.60218 15.5877 1.67091 13.6485 3.01239 13.0837L22.2502 4.98354Z" fill="#212529"/>
</svg>
