<svg width="23" height="20" viewBox="0 0 23 20" fill="none" xmlns="http://www.w3.org/2000/svg">
<path fill-rule="evenodd" clip-rule="evenodd" d="M20.2697 0.13503C21.4936 -0.380299 22.8057 0.654622 22.5896 1.9649L20.0371 17.4412C19.7909 18.9334 18.152 19.7896 16.783 19.046C15.6374 18.4238 13.9378 17.4661 12.406 16.4651C11.6411 15.9653 9.29895 14.3626 9.58683 13.2218C9.83298 12.2463 13.7704 8.58115 16.0204 6.40146C16.9042 5.54526 16.5016 5.05063 15.4579 5.83896C12.8686 7.79455 8.71149 10.7678 7.33679 11.6046C6.12389 12.3428 5.49061 12.4688 4.73523 12.3428C3.35583 12.113 2.07696 11.757 1.03287 11.3242C-0.378292 10.7392 -0.309555 8.79996 1.03192 8.23521L20.2697 0.13503Z" fill="#212529"/>
</svg>
