<svg width="33" height="33" viewBox="0 0 33 33" fill="none" xmlns="http://www.w3.org/2000/svg">
<path d="M19.0751 15.8892C18.5595 15.6953 18.5595 14.9549 18.5275 14.4393C18.3986 12.6026 19.0431 9.79863 18.2697 8.6065C17.7221 7.897 15.079 7.96197 13.4682 8.05891C13.0165 8.12388 12.4689 8.21979 12.0822 8.41366C11.6955 8.60754 11.3088 8.92928 11.3088 9.21907C11.3088 9.63775 12.2761 9.57382 12.6298 10.1214C13.0165 10.702 13.0165 11.9581 13.0165 12.9893C13.0165 14.1814 12.8226 15.7613 12.34 15.8253C11.5985 15.8572 11.1799 15.1158 10.7931 14.5682C10.0197 13.5049 9.24626 12.1829 8.66567 10.8938C8.37589 10.2173 8.21398 9.47585 7.79529 9.18607C7.15076 8.73438 5.9906 8.70241 4.86242 8.73438C3.83117 8.76635 2.34823 8.63744 2.05845 9.25C1.8326 9.9265 2.31626 10.571 2.57407 11.1197C3.8951 13.9876 5.31307 16.5018 7.05382 18.886C8.66567 21.1094 10.1795 22.8821 13.1444 23.8164C13.9828 24.0742 17.6561 24.8157 18.3976 23.8164C18.6554 23.4297 18.5914 22.5593 18.7204 21.9148C18.8493 21.2703 19.0101 20.6257 19.6227 20.5938C20.1383 20.5618 20.4281 21.0124 20.7509 21.3352C21.1056 21.69 21.3954 21.9798 21.6532 22.3025C22.2658 22.9151 22.9103 23.7525 23.6838 24.0753C24.747 24.5269 26.3908 24.398 27.9377 24.3331C29.1948 24.3011 30.0971 24.0433 30.194 23.3018C30.259 22.7212 29.6134 21.8838 29.2267 21.4002C28.2594 20.2081 27.8088 19.8533 26.7125 18.7571C26.2289 18.2734 25.6163 17.7578 25.6163 17.1783C25.5844 16.8235 25.8741 16.5018 26.1319 16.147C27.2601 14.4712 28.3883 13.2791 29.4196 11.5383C29.7094 11.0227 30.3869 9.8306 30.1291 9.25C29.8393 8.60547 28.2274 8.79832 27.2282 8.79832C25.9391 8.79832 24.2633 8.70138 23.9405 8.95919C23.328 9.37788 23.0702 10.0554 22.7804 10.6999C22.1359 12.1829 21.2655 13.6968 20.3631 14.8249C20.0404 15.2117 19.4288 16.0171 19.0741 15.8882L19.0751 15.8892Z" fill="#212529"/>
</svg>
