<svg width="29" height="17" viewBox="0 0 29 17" fill="none" xmlns="http://www.w3.org/2000/svg">
<path d="M17.0751 7.88919C16.5595 7.69532 16.5595 6.95488 16.5275 6.43925C16.3986 4.6026 17.0431 1.79863 16.2697 0.606503C15.7221 -0.102997 13.079 -0.038028 11.4682 0.0589095C11.0165 0.123878 10.4689 0.219785 10.0822 0.41366C9.69548 0.607535 9.30876 0.929285 9.30876 1.21907C9.30876 1.63775 10.2761 1.57382 10.6298 2.12141C11.0165 2.702 11.0165 3.95807 11.0165 4.98932C11.0165 6.18144 10.8226 7.76132 10.34 7.82525C9.59854 7.85722 9.17985 7.11575 8.79313 6.56816C8.0197 5.50494 7.24626 4.18288 6.66567 2.89382C6.37589 2.21732 6.21398 1.47585 5.79529 1.18607C5.15076 0.734379 3.9906 0.70241 2.86242 0.734379C1.83117 0.766348 0.348229 0.637442 0.0584479 1.25C-0.167396 1.9265 0.31626 2.57103 0.574073 3.11966C1.8951 5.98757 3.31307 8.50175 5.05382 10.886C6.66567 13.1094 8.17954 14.8821 11.1444 15.8164C11.9828 16.0742 15.6561 16.8157 16.3976 15.8164C16.6554 15.4297 16.5914 14.5593 16.7204 13.9148C16.8493 13.2703 17.0101 12.6257 17.6227 12.5938C18.1383 12.5618 18.4281 13.0124 18.7509 13.3352C19.1056 13.69 19.3954 13.9798 19.6532 14.3025C20.2658 14.9151 20.9103 15.7525 21.6838 16.0753C22.747 16.5269 24.3908 16.398 25.9377 16.3331C27.1948 16.3011 28.0971 16.0433 28.194 15.3018C28.259 14.7212 27.6134 13.8838 27.2267 13.4002C26.2594 12.2081 25.8088 11.8533 24.7125 10.7571C24.2289 10.2734 23.6163 9.75782 23.6163 9.17825C23.5844 8.8235 23.8741 8.50175 24.1319 8.147C25.2601 6.47122 26.3883 5.2791 27.4196 3.53835C27.7094 3.02272 28.3869 1.8306 28.1291 1.25C27.8393 0.605473 26.2274 0.798316 25.2282 0.798316C23.9391 0.798316 22.2633 0.701378 21.9405 0.959191C21.328 1.37788 21.0702 2.05541 20.7804 2.69994C20.1359 4.18288 19.2655 5.69675 18.3631 6.82494C18.0404 7.21166 17.4288 8.01707 17.0741 7.88816L17.0751 7.88919Z" fill="#212529"/>
</svg>
