<svg width="24" height="24" viewBox="0 0 24 24" fill="none" xmlns="http://www.w3.org/2000/svg">
<path fill-rule="evenodd" clip-rule="evenodd" d="M21.5129 0.167749C22.8118 -0.47245 24.2044 0.813244 23.975 2.44102L21.266 21.6674C21.0047 23.5212 19.2653 24.5849 17.8123 23.6611C16.5965 22.8881 14.7926 21.6983 13.1668 20.4548C12.355 19.8339 9.86926 17.8429 10.1748 16.4256C10.4361 15.2137 14.6149 10.6605 17.0029 7.95261C17.9409 6.88894 17.5137 6.27445 16.4059 7.25381C13.6578 9.68326 9.24578 13.377 7.78676 14.4165C6.49948 15.3336 5.82735 15.4901 5.02564 15.3336C3.56165 15.0481 2.20435 14.6059 1.09622 14.0682C-0.401493 13.3415 -0.32854 10.9323 1.09521 10.2307L21.5129 0.167749Z" fill="#F2F3F4"/>
</svg>
